<?xml version="1.0" encoding="UTF-8" standalone="no"?>
<svg
   xmlns:dc="http://purl.org/dc/elements/1.1/"
   xmlns:cc="http://creativecommons.org/ns#"
   xmlns:rdf="http://www.w3.org/1999/02/22-rdf-syntax-ns#"
   xmlns:svg="http://www.w3.org/2000/svg"
   xmlns="http://www.w3.org/2000/svg"
   xmlns:xlink="http://www.w3.org/1999/xlink"
   xmlns:sodipodi="http://sodipodi.sourceforge.net/DTD/sodipodi-0.dtd"
   xmlns:inkscape="http://www.inkscape.org/namespaces/inkscape"
   width="9cm"
   height="12cm"
   viewBox="0 0 90.000103 119.99991"
   version="1.1"
   id="svg27"
   sodipodi:docname="Logo_of_the_Ministry_of_Manpower_of_the_Republic_of_Indonesia.svg"
   inkscape:version="1.0.1 (3bc2e813f5, 2020-09-07)">
  <metadata
     id="metadata31">
    <rdf:RDF>
      <cc:Work
         rdf:about="">
        <dc:format>image/svg+xml</dc:format>
        <dc:type
           rdf:resource="http://purl.org/dc/dcmitype/StillImage" />
        <dc:title></dc:title>
      </cc:Work>
    </rdf:RDF>
  </metadata>
  <sodipodi:namedview
     pagecolor="#ffffff"
     bordercolor="#666666"
     borderopacity="1"
     objecttolerance="10"
     gridtolerance="10"
     guidetolerance="10"
     inkscape:pageopacity="0"
     inkscape:pageshadow="2"
     inkscape:window-width="1366"
     inkscape:window-height="705"
     id="namedview29"
     showgrid="false"
     inkscape:zoom="0.90619634"
     inkscape:cx="169.62332"
     inkscape:cy="228.54293"
     inkscape:window-x="-8"
     inkscape:window-y="-8"
     inkscape:window-maximized="1"
     inkscape:current-layer="svg27"
     inkscape:document-rotation="0"
     showguides="true"
     inkscape:guide-bbox="true"
     inkscape:snap-bbox="true"
     inkscape:bbox-paths="true"
     inkscape:bbox-nodes="true"
     inkscape:snap-bbox-edge-midpoints="true"
     inkscape:snap-bbox-midpoints="true"
     inkscape:object-paths="true"
     inkscape:snap-smooth-nodes="true"
     inkscape:snap-object-midpoints="true"
     inkscape:snap-center="true"
     inkscape:snap-midpoints="true"
     inkscape:snap-intersection-paths="true"
     units="cm" />
  <defs
     id="defs7">
    <filter
       id="A"
       x="0"
       width="1"
       y="0"
       height="1"
       color-interpolation-filters="sRGB">
      <feGaussianBlur
         stdDeviation=".001"
         id="feGaussianBlur2" />
    </filter>
    <path
       id="B"
       d="m 79.463,198.231 -3.888,-4.72 3.173,-3.277 c 0.416,-0.442 0.403,-1.118 -0.039,-1.534 -0.429,-0.416 -1.118,-0.416 -1.534,0.026 l -4.798,4.967 v -4.213 c 0,-0.598 -0.481,-1.092 -1.079,-1.092 -0.598,0 -1.079,0.494 -1.079,1.092 v 9.441 c 0,0.598 0.481,1.079 1.079,1.079 0.598,0 1.079,-0.481 1.079,-1.079 v -2.094 l 1.69,-1.742 3.719,4.525 a 1.06,1.06 0 0 0 0.832,0.39 c 0.247,0 0.494,-0.078 0.689,-0.234 0.468,-0.39 0.533,-1.066 0.156,-1.534 z" />
    <path
       id="C"
       d="m 88.435,197.841 h -5.214 v -2.562 h 4.291 c 0.598,0 1.092,-0.481 1.092,-1.079 a 1.1,1.1 0 0 0 -1.092,-1.092 h -4.291 v -2.549 h 5.214 c 0.598,0 1.092,-0.481 1.092,-1.079 a 1.1,1.1 0 0 0 -1.092,-1.092 h -6.294 c -0.598,0 -1.079,0.494 -1.079,1.092 v 9.441 c 0,0.598 0.481,1.079 1.079,1.079 h 6.294 c 0.598,0 1.092,-0.481 1.092,-1.079 0,-0.598 -0.494,-1.079 -1.092,-1.079 z" />
  </defs>
  <path
     id="path9"
     style="fill:#2c4c63;stroke-width:0.133606"
     d="m 45.000053,0.01432326 c -1.935631,0 -3.871097,0.74070436 -5.347934,2.22189894 -2.953674,2.9623888 -2.953674,7.7654978 0,10.7278878 2.953675,2.962389 7.742195,2.962389 10.695869,0 2.953675,-2.96239 2.953675,-7.765499 0,-10.7278878 C 48.871152,0.75502762 46.935684,0.01432326 45.000053,0.01432326 Z M 61.113189,7.8375129 c -1.290463,0 -2.580771,0.4936403 -3.565461,1.4811031 L 36.086142,30.843109 c -0.974102,0.976615 -2.549342,0.988551 -3.53804,0.0268 l 1.755566,1.76134 8.912878,8.939743 c 0.984558,0.987463 2.581288,0.987463 3.56598,0 L 68.244114,20.046503 c 1.969115,-1.974925 1.969115,-5.176674 0,-7.151599 L 64.678652,9.318616 C 63.694092,8.3311532 62.403655,7.8375126 61.113189,7.8375129 Z m -32.157971,0.069693 c -1.290295,1.317e-4 -2.580521,0.4932847 -3.564947,1.480616 L 21.824809,12.96411 c -1.969115,1.974925 -1.969115,5.176674 0,7.151599 l 8.913398,8.939745 c 0.984637,0.987332 2.580824,0.987332 3.565461,0 l 7.130407,-7.1516 c 0.98463,-0.987578 0.98463,-2.588711 0,-3.576287 L 32.520678,9.3878219 C 31.536252,8.4004908 30.246025,7.9073376 28.955734,7.9072058 Z M 16.408059,20.353057 c -1.29043,0 -2.580903,0.493639 -3.565461,1.481103 L 9.2771351,25.410448 C 8.2926999,26.397784 7.8005743,27.69165 7.8004513,28.985759 v 5e-4 c 1.23e-4,1.294111 0.4922486,2.588328 1.4766838,3.5758 L 30.738207,54.08704 c 0.984307,0.987523 0.984307,2.588278 0,3.5758 l 1.782471,-1.788144 8.913397,-8.939257 c 0.984559,-0.987462 0.984559,-2.588689 0,-3.576287 L 19.973004,21.83416 c -0.984558,-0.987464 -2.274513,-1.481103 -3.564945,-1.481103 z m 57.115172,0.06969 c -1.290362,0 -2.580903,0.493641 -3.56546,1.481105 l -8.913915,8.939741 c -0.984306,0.987523 -0.984306,2.588281 0,3.575801 l 7.130925,7.152088 c 0.984636,0.987335 2.580825,0.987335 3.565464,0 l 8.913394,-8.939744 c 0.984558,-0.987464 1.476684,-2.282014 1.476684,-3.576286 0,-1.294273 -0.492126,-2.588825 -1.476684,-3.576288 l -3.565461,-3.575312 c -0.98456,-0.987464 -2.274581,-1.481105 -3.564947,-1.481105 z m -14.261845,12.208505 -1.782474,1.787656 -8.913395,8.940229 c -0.984557,0.987465 -0.984557,2.588204 0,3.575801 l 21.46107,21.524981 c 1.969115,1.974925 5.161806,1.974925 7.130921,0 l 3.565464,-3.576291 c 0.984558,-0.987464 1.476684,-2.281528 1.476684,-3.575801 0,-1.294272 -0.492126,-2.588204 -1.476684,-3.575799 L 59.261386,36.207051 c -0.984306,-0.987518 -0.984306,-2.588277 0,-3.575797 z M 7.5634775,37.56144 c -1.9356299,0 -3.8716138,0.740216 -5.3484514,2.22141 C 0.7381894,41.264044 0,43.205454 0,45.146796 c 0,1.94134 0.7381894,3.882748 2.2150261,5.363944 2.9536743,2.962386 7.7427125,2.962386 10.6963859,0 2.953674,-2.96239 2.953674,-7.765498 0,-10.72789 -1.476836,-1.481194 -3.4123036,-2.22141 -5.3479345,-2.22141 z m 74.8731525,0 c -1.93563,0 -3.871617,0.740703 -5.348452,2.221897 -2.953675,2.96239 -2.953675,7.765499 0,10.727888 2.953673,2.962391 7.742713,2.962391 10.696386,0 1.476838,-1.481194 2.215542,-3.422601 2.215542,-5.363942 0,-1.941343 -0.738704,-3.882749 -2.215542,-5.363946 C 86.307725,38.302143 84.372259,37.56144 82.43663,37.56144 Z M 20.060964,47.982776 c -0.675143,-0.0051 -1.324123,0.261572 -1.801616,0.740309 l -8.9133976,8.939742 c -0.9844342,0.987341 -1.4765608,2.28169 -1.4766838,3.575801 v 5e-4 c 1.23e-4,1.294109 0.4922496,2.587972 1.4766838,3.575311 l 3.5654616,3.5758 c 1.969116,1.974927 5.161291,1.974927 7.130407,0 l 8.913915,-8.939256 c 0.984629,-0.987577 0.984629,-2.588711 0,-3.576287 l -7.130925,-7.151611 c -0.468237,-0.469456 -1.10179,-0.735368 -1.763845,-0.740309 z m 24.939089,0 c -0.645249,0 -1.290643,0.246577 -1.78299,0.740309 L 21.755994,70.247577 c -1.969115,1.974925 -1.969115,5.177162 0,7.152086 l 3.564945,3.5758 c 0.984558,0.987463 2.274997,1.481106 3.565461,1.481106 v -4.99e-4 c 1.290467,0 2.580772,-0.49364 3.565461,-1.481101 l 21.46159,-21.524008 c 0.97416,-0.976955 2.549795,-0.988889 3.538556,-0.0268 L 55.696441,57.662822 46.783043,48.723078 C 46.290765,48.229347 45.645302,47.98277 45.000053,47.98277 Z m 12.497485,12.515057 c -0.675213,-0.005 -1.324203,0.261879 -1.801616,0.740795 l -7.130405,7.151598 c -0.984307,0.987523 -0.984307,2.58828 0,3.575802 l 8.912878,8.940233 c 0.984558,0.98746 2.275514,1.480613 3.56598,1.480613 1.290464,0 2.580904,-0.493153 3.565461,-1.480613 l 3.564945,-3.57629 c 1.969115,-1.974925 1.969115,-5.176673 0,-7.1516 l -8.913395,-8.939743 c -0.46816,-0.469635 -1.101725,-0.735725 -1.763848,-0.740795 z m -12.498002,14.61024 c -1.93563,0 -3.871096,0.740703 -5.347933,2.221898 -2.953674,2.96239 -2.953674,7.765498 0,10.727887 1.476837,1.481195 3.412303,2.221899 5.347933,2.221899 1.935631,0 3.871616,-0.740704 5.348452,-2.221899 2.953675,-2.962389 2.953675,-7.765497 0,-10.727887 -1.476836,-1.481195 -3.412821,-2.221898 -5.348452,-2.221898 z"
     sodipodi:nodetypes="ssssssscccccccccssccccccccsssccsscccccccssccccccsccscccccccscccsssssssssssssscccsscccccccsccccccccccsscccccscccccsssssss" />
  <g
     fill-opacity="0.996"
     id="g23"
     style="fill:#2c4c63"
     transform="translate(-70.104,-80)">
    <use
       xlink:href="#B"
       id="use11"
       x="0"
       y="0"
       width="100%"
       height="100%" />
    <use
       xlink:href="#C"
       id="use13"
       x="0"
       y="0"
       width="100%"
       height="100%" />
    <path
       d="m 102.609,189.493 v -0.013 -0.026 -0.039 -0.026 c -0.013,-0.013 -0.013,-0.026 -0.013,-0.039 v -0.052 c -0.013,-0.026 -0.013,-0.039 -0.013,-0.065 0,-0.013 -0.013,-0.026 -0.013,-0.039 0,-0.013 -0.013,-0.039 -0.013,-0.052 -0.013,-0.013 -0.013,-0.039 -0.026,-0.052 0,-0.013 -0.013,-0.026 -0.013,-0.052 -0.013,-0.013 -0.013,-0.026 -0.026,-0.039 0,-0.026 -0.013,-0.039 -0.026,-0.052 0,-0.013 -0.013,-0.039 -0.026,-0.052 -0.013,-0.013 -0.013,-0.026 -0.026,-0.039 l -0.039,-0.039 c 0,-0.013 -0.013,-0.026 -0.026,-0.039 l -0.039,-0.039 -0.039,-0.039 c 0,-0.013 -0.013,-0.026 -0.026,-0.026 -0.013,-0.013 -0.013,-0.026 -0.026,-0.039 -0.169,-0.13 -0.351,-0.221 -0.572,-0.234 h -0.026 c -0.013,-0.013 -0.013,-0.013 -0.026,-0.013 h -0.026 -0.052 -0.078 c -0.013,0 -0.013,0 -0.026,0.013 h -0.026 -0.052 c -0.013,0.013 -0.026,0.013 -0.052,0.013 -0.013,0 -0.026,0.013 -0.039,0.013 -0.026,0 -0.039,0.013 -0.065,0.013 -0.013,0.013 -0.026,0.013 -0.039,0.026 -0.013,0 -0.039,0.013 -0.052,0.013 -0.013,0.013 -0.039,0.013 -0.052,0.026 -0.013,0 -0.026,0.013 -0.039,0.026 -0.026,0 -0.039,0.013 -0.052,0.026 -0.013,0.013 -0.026,0.013 -0.039,0.026 -0.013,0.013 -0.039,0.026 -0.052,0.039 -0.013,0 -0.026,0.013 -0.026,0.026 a 0.18,0.18 0 0 0 -0.052,0.039 l -0.026,0.026 -0.039,0.039 c -0.013,0.013 -0.013,0.026 -0.026,0.026 0,0.013 -0.013,0.013 -0.013,0.026 l -3.875,5.084 -3.719,-5.058 c -0.026,-0.039 -0.039,-0.052 -0.052,-0.065 l -0.039,-0.039 c -0.013,-0.013 -0.013,-0.026 -0.026,-0.039 a 0.18,0.18 0 0 1 -0.052,-0.039 c -0.013,-0.013 -0.026,-0.013 -0.026,-0.026 -0.026,-0.013 -0.039,-0.026 -0.052,-0.039 -0.013,0 -0.026,-0.013 -0.039,-0.026 -0.013,0 -0.039,-0.013 -0.052,-0.026 -0.013,-0.013 -0.026,-0.013 -0.039,-0.026 -0.026,0 -0.039,-0.013 -0.052,-0.026 -0.013,0 -0.039,-0.013 -0.052,-0.013 -0.013,-0.013 -0.026,-0.013 -0.039,-0.013 -0.026,-0.013 -0.039,-0.013 -0.065,-0.026 -0.013,0 -0.026,0 -0.039,-0.013 -0.026,0 -0.039,0 -0.052,-0.013 H 92.35 c -0.026,0 -0.039,0 -0.052,-0.013 h -0.065 -0.026 -0.026 -0.039 c -0.013,0 -0.026,0 -0.039,0.013 h -0.039 a 1.1,1.1 0 0 0 -0.689,0.377 c -0.013,0.026 -0.026,0.026 -0.026,0.039 -0.013,0.013 -0.026,0.026 -0.026,0.039 -0.013,0.013 -0.026,0.026 -0.026,0.039 l -0.039,0.039 c 0,0.026 -0.013,0.039 -0.013,0.052 -0.013,0.013 -0.026,0.026 -0.026,0.052 -0.013,0.013 -0.013,0.026 -0.026,0.052 0,0.013 -0.013,0.026 -0.013,0.039 -0.013,0.013 -0.013,0.039 -0.013,0.052 -0.013,0.013 -0.013,0.039 -0.013,0.052 -0.013,0.013 -0.013,0.039 -0.013,0.052 0,0.013 0,0.026 -0.013,0.039 v 0.026 0.026 0.039 c 0,0.026 -0.013,0.052 0,0.078 v 9.428 c 0,0.598 0.481,1.079 1.079,1.079 0.598,0 1.079,-0.481 1.079,-1.079 v -6.138 l 2.614,3.537 0.013,0.013 c 0.013,0.026 0.026,0.052 0.039,0.065 l 0.026,0.026 a 0.68,0.68 0 0 0 0.143,0.13 0.27,0.27 0 0 0 0.156,0.104 c 0.026,0.013 0.039,0.013 0.052,0.026 0.416,0.208 0.936,0.169 1.313,-0.325 l 0.013,-0.013 2.783,-3.654 v 6.229 c 0,0.598 0.481,1.079 1.079,1.079 0.598,0 1.092,-0.481 1.092,-1.079 z m 12.509,10.091 c 0,-0.013 0.013,-0.026 0.026,-0.039 0,-0.013 0.013,-0.013 0.013,-0.026 0.013,-0.013 0.013,-0.026 0.026,-0.039 0,-0.013 0.013,-0.013 0.013,-0.026 0.026,-0.026 0.039,-0.065 0.052,-0.091 0.013,-0.026 0.013,-0.039 0.026,-0.052 0,-0.013 0,-0.026 0.013,-0.026 0,-0.013 0,-0.039 0.013,-0.052 v -0.026 c 0.013,-0.013 0.013,-0.026 0.026,-0.052 0,-0.052 0.013,-0.078 0.013,-0.117 0.013,-0.039 0.013,-0.052 0.013,-0.065 v -0.026 -0.039 -0.039 -0.052 -9.35 c 0,-0.598 -0.494,-1.079 -1.092,-1.079 -0.598,0 -1.079,0.481 -1.079,1.079 v 6.489 l -6.086,-7.178 a 1.09,1.09 0 0 0 -0.845,-0.39 c -0.663,0 -1.105,0.559 -1.079,1.144 v 9.376 a 1.08,1.08 0 0 0 1.079,1.092 1.09,1.09 0 0 0 1.092,-1.092 v -6.476 l 6.086,7.178 0.026,0.026 c 0.026,0.026 0.039,0.039 0.039,0.052 l 0.117,0.091 c 0.026,0.026 0.039,0.026 0.052,0.039 0.013,0.013 0.026,0.013 0.039,0.026 0.013,0.013 0.039,0.026 0.052,0.039 0.013,0 0.013,0 0.026,0.013 h 0.026 c 0.013,0.013 0.026,0.013 0.026,0.013 -0.013,0 -0.013,0 -0.026,-0.013 0.039,0.013 0.065,0.026 0.091,0.039 0.013,0 0.026,0.013 0.026,0.013 0.026,0 0.052,0.013 0.065,0.013 0.013,0.013 0.026,0.013 0.026,0.013 0.026,0 0.052,0.013 0.065,0.013 h 0.026 c 0.039,0.013 0.065,0.013 0.091,0.013 h 0.091 0.026 0.052 0.026 c 0.026,0 0.052,-0.013 0.065,-0.013 h 0.026 c 0.026,0 0.052,-0.013 0.078,-0.026 0.039,-0.013 0.052,-0.013 0.065,-0.026 h 0.039 c 0.013,-0.013 0.026,-0.013 0.039,-0.026 0.013,0 0.026,-0.013 0.026,-0.013 0.026,-0.013 0.039,-0.026 0.065,-0.026 0.013,-0.013 0.013,-0.013 0.026,-0.013 0.013,-0.013 0.026,-0.026 0.052,-0.039 0,-0.013 0.013,-0.013 0.026,-0.026 0.013,0 0.026,-0.013 0.026,-0.026 0.013,0 0.026,-0.013 0.039,-0.013 0,-0.013 0.013,-0.026 0.026,-0.039 0.013,0 0.013,-0.013 0.026,-0.026 0.013,-0.013 0.026,-0.026 0.052,-0.039 0,-0.013 0.013,-0.026 0.026,-0.039 0,-0.013 0.013,-0.013 0.026,-0.026 z m 13.121,-1.158 -4.785,-9.428 c 0,0.013 0.013,0.026 0.013,0.039 -0.065,-0.169 -0.182,-0.312 -0.338,-0.429 l -0.026,-0.026 c -0.026,-0.013 -0.039,-0.026 -0.052,-0.026 -0.026,-0.013 -0.052,-0.026 -0.065,-0.039 l -0.117,-0.052 c -0.065,-0.026 -0.13,-0.052 -0.195,-0.065 h -0.026 c -0.026,0 -0.052,0 -0.078,-0.013 h -0.091 -0.039 c -0.299,0.013 -0.546,0.143 -0.728,0.325 -0.039,0.039 -0.065,0.052 -0.078,0.078 l -0.052,0.078 -0.026,0.026 -0.039,0.078 -4.798,9.454 c -0.377,0.728 0.156,1.573 0.962,1.573 0.39,0 0.78,-0.208 0.975,-0.585 l 0.754,-1.495 h 6.138 l 0.767,1.495 c 0.26,0.533 0.923,0.741 1.456,0.468 0.533,-0.26 0.741,-0.923 0.468,-1.456 z m -4.759,-8.517 c -0.013,0.013 -0.026,0.039 -0.039,0.052 0.013,-0.013 0.026,-0.039 0.039,-0.052 z m 0.013,-0.052 z m 0.013,-0.728 c 0,-0.013 -0.013,-0.026 -0.013,-0.039 0,0.013 0.013,0.026 0.013,0.039 z m 0.013,0.65 z m -0.026,-0.702 c -0.013,-0.013 -0.013,-0.026 -0.013,-0.039 0,0.013 0,0.026 0.013,0.039 z m -1.014,2.796 1.964,3.875 h -3.927 z"
       id="path15" />
    <use
       xlink:href="#B"
       x="59.400002"
       id="use17"
       y="0"
       width="100%"
       height="100%" />
    <use
       xlink:href="#C"
       x="59.400002"
       id="use19"
       y="0"
       width="100%"
       height="100%" />
    <path
       d="m 157.809,195.709 c 1.287,-0.611 2.185,-1.938 2.185,-3.472 0,-2.12 -1.716,-3.849 -3.836,-3.849 h -4.551 c -0.377,0 -0.702,0.195 -0.897,0.481 a 1.06,1.06 0 0 0 -0.182,0.611 v 9.441 c 0,0.598 0.481,1.079 1.079,1.079 0.598,0 1.079,-0.481 1.079,-1.079 v -2.835 h 2.666 l 2.705,3.498 c 0.208,0.273 0.533,0.416 0.858,0.416 0.234,0 0.468,-0.065 0.663,-0.221 a 1.08,1.08 0 0 0 0.195,-1.521 z m -5.123,-5.149 h 3.472 a 1.6775,1.6775 0 1 1 0,3.355 h -0.273 -0.013 v 0 h -3.186 z m 3.199,3.355 z"
       id="path21" />
  </g>
</svg>
